<?xml version="1.0" encoding="utf-8"?>
<!-- Generator: Adobe Illustrator 27.5.0, SVG Export Plug-In . SVG Version: 6.00 Build 0)  -->
<svg version="1.1" xmlns="http://www.w3.org/2000/svg" xmlns:xlink="http://www.w3.org/1999/xlink" x="0px" y="0px"
	 viewBox="0 0 500 500" style="enable-background:new 0 0 500 500;" xml:space="preserve">
<g id="Background_Complete">
	<g>
		<rect x="416.779" y="398.494" style="fill:#EBEBEB;" width="33.122" height="0.25"/>
		<rect x="322.527" y="401.208" style="fill:#EBEBEB;" width="8.693" height="0.25"/>
		<rect x="396.586" y="389.208" style="fill:#EBEBEB;" width="19.192" height="0.25"/>
		<rect x="52.459" y="390.888" style="fill:#EBEBEB;" width="43.193" height="0.25"/>
		<rect x="104.556" y="390.888" style="fill:#EBEBEB;" width="6.333" height="0.25"/>
		<rect x="131.471" y="395.111" style="fill:#EBEBEB;" width="93.676" height="0.25"/>
		<path style="fill:#EBEBEB;" d="M237.014,337.8H43.915c-3.147,0-5.708-2.561-5.708-5.708V60.66c0-3.147,2.561-5.708,5.708-5.708
			h193.099c3.146,0,5.707,2.561,5.707,5.708v271.432C242.721,335.239,240.16,337.8,237.014,337.8z M43.915,55.203
			c-3.01,0-5.458,2.448-5.458,5.458v271.432c0,3.01,2.448,5.458,5.458,5.458h193.099c3.009,0,5.457-2.448,5.457-5.458V60.66
			c0-3.009-2.448-5.458-5.457-5.458H43.915z"/>
		<path style="fill:#EBEBEB;" d="M453.31,337.8H260.212c-3.147,0-5.707-2.561-5.707-5.708V60.66c0-3.147,2.561-5.708,5.707-5.708
			H453.31c3.148,0,5.708,2.561,5.708,5.708v271.432C459.019,335.239,456.458,337.8,453.31,337.8z M260.212,55.203
			c-3.009,0-5.457,2.448-5.457,5.458v271.432c0,3.01,2.448,5.458,5.457,5.458H453.31c3.01,0,5.458-2.448,5.458-5.458V60.66
			c0-3.009-2.448-5.458-5.458-5.458H260.212z"/>
		<rect y="382.398" style="fill:#EBEBEB;" width="500" height="0.25"/>
	</g>
	<g>
		<g>
			
				<rect x="264.112" y="69.953" transform="matrix(-1 -1.224647e-16 1.224647e-16 -1 557.2096 178.8133)" style="fill:#F0F0F0;" width="28.985" height="38.908"/>
			
				<rect x="261.712" y="70.753" transform="matrix(-1 -1.224647e-16 1.224647e-16 -1 552.4096 180.4133)" style="fill:#F5F5F5;" width="28.985" height="38.908"/>
			<rect x="288.923" y="73.187" style="fill:#E0E0E0;" width="9.193" height="43.435"/>
			<polygon style="fill:#EBEBEB;" points="281.555,73.187 260.693,102.66 260.693,116.622 288.923,116.622 288.923,73.187 			"/>
			<path style="fill:#FAFAFA;" d="M296.341,109.661c0,1.559-1.263,2.822-2.822,2.822s-2.822-1.263-2.822-2.822
				c0-1.558,1.263-2.822,2.822-2.822S296.341,108.102,296.341,109.661z"/>
			<rect x="290.698" y="83.381" style="fill:#F0F0F0;" width="5.644" height="18.343"/>
			<rect x="290.698" y="83.381" style="opacity:0.6;fill:#FAFAFA;" width="5.644" height="2.586"/>
		</g>
		<g>
			<g>
				<path style="fill:#EBEBEB;" d="M252.895,105.871v-7.072c0.872,0,0.873-1.354,0-1.354c-2.695,0-5.393-0.018-8.09-0.034v9.815
					c2.697,0,5.393,0,8.09,0C253.766,107.225,253.767,105.871,252.895,105.871z"/>
				<rect x="246.61" y="98.799" style="fill:#F5F5F5;" width="6.284" height="7.062"/>
				<path style="fill:#FAFAFA;" d="M247.929,106.548h-21.787c-1.498,0-2.712-1.886-2.712-4.213c0-2.327,1.214-4.213,2.712-4.213
					h21.787V106.548z"/>
				<g>
					<path style="fill:#E6E6E6;" d="M247.929,97.444c-7.133,0-14.277-0.129-21.409,0c-4.885,0.088-5.148,9.452-0.356,9.781
						c3.34,0.229,6.776,0,10.122,0c3.881,0,7.762,0,11.642,0c0.871,0,0.873-1.354,0-1.354c-6.76,0-13.521,0-20.281,0
						c-1.565,0-2.684-0.017-3.288-1.863c-0.523-1.597-0.359-4.856,1.783-5.209c0.231-0.038,0.502,0,0.734,0
						c3.686,0,7.372,0,11.058,0c3.332,0,6.663,0,9.995,0C248.8,98.799,248.802,97.444,247.929,97.444L247.929,97.444z"/>
				</g>
			</g>
			<g>
				<path style="fill:#EBEBEB;" d="M252.967,96.321v-6.285c0.774,0,0.776-1.204,0-1.204c-2.396,0-4.792-0.016-7.19-0.031v8.723
					c2.397,0,4.793,0,7.19,0C253.742,97.524,253.743,96.321,252.967,96.321z"/>
				<rect x="247.383" y="90.035" style="fill:#F5F5F5;" width="5.585" height="6.276"/>
				<path style="fill:#FAFAFA;" d="M248.554,96.922h-19.361c-1.331,0-2.41-1.676-2.41-3.744c0-2.068,1.079-3.744,2.41-3.744h19.361
					V96.922z"/>
				<g>
					<path style="fill:#E6E6E6;" d="M248.554,88.832c-6.339,0-12.688-0.114-19.026,0c-4.341,0.078-4.575,8.4-0.317,8.692
						c2.968,0.204,6.022,0,8.996,0c3.449,0,6.898,0,10.346,0c0.774,0,0.776-1.203,0-1.203c-6.008,0-12.016,0-18.024,0
						c-1.39,0-2.385-0.016-2.922-1.656c-0.465-1.419-0.319-4.316,1.585-4.629c0.205-0.034,0.446,0,0.652,0c3.276,0,6.551,0,9.827,0
						c2.961,0,5.922,0,8.882,0C249.329,90.035,249.33,88.832,248.554,88.832L248.554,88.832z"/>
				</g>
			</g>
			<g>
				<path style="fill:#EBEBEB;" d="M252.895,115.483v-7.072c0.872,0,0.873-1.354,0-1.354c-2.695,0-5.393-0.018-8.09-0.034v9.815
					c2.697,0,5.393,0,8.09,0C253.766,116.837,253.767,115.483,252.895,115.483z"/>
				<rect x="246.61" y="108.411" style="fill:#F5F5F5;" width="6.284" height="7.062"/>
				<path style="fill:#FAFAFA;" d="M247.929,116.16h-21.787c-1.498,0-2.712-1.886-2.712-4.213c0-2.327,1.214-4.213,2.712-4.213
					h21.787V116.16z"/>
				<g>
					<path style="fill:#E6E6E6;" d="M247.929,107.056c-7.133,0-14.277-0.129-21.409,0c-4.885,0.088-5.148,9.452-0.356,9.781
						c3.34,0.229,6.776,0,10.122,0c3.881,0,7.762,0,11.642,0c0.871,0,0.873-1.354,0-1.354c-6.76,0-13.521,0-20.281,0
						c-1.565,0-2.684-0.017-3.288-1.863c-0.523-1.597-0.359-4.856,1.783-5.209c0.231-0.038,0.502,0,0.734,0
						c3.686,0,7.372,0,11.058,0c3.332,0,6.663,0,9.995,0C248.8,108.411,248.802,107.056,247.929,107.056L247.929,107.056z"/>
				</g>
			</g>
		</g>
		<g>
			<rect x="128.26" y="116.266" style="fill:#F5F5F5;" width="243.48" height="7.045"/>
			<g>
				<polygon style="fill:#E0E0E0;" points="358.619,140.44 358.619,123.312 367.184,123.312 				"/>
				<polygon style="fill:#F5F5F5;" points="362.902,140.44 371.466,123.312 367.184,123.312 358.619,140.44 				"/>
			</g>
			<g>
				<polygon style="fill:#E0E0E0;" points="141.107,140.44 141.107,123.312 132.542,123.312 				"/>
				<polygon style="fill:#F5F5F5;" points="136.825,140.44 128.26,123.312 132.542,123.312 141.107,140.44 				"/>
			</g>
		</g>
		<g>
			<path style="fill:#F0F0F0;" d="M344.556,97.734v-0.649c0-10.29-8.342-18.632-18.632-18.632c-10.29,0-18.632,8.342-18.632,18.632
				v0.649v18.632h18.632h18.632V97.734z"/>
			<path style="fill:#FAFAFA;" d="M311.368,97.086c0,8.039,6.517,14.556,14.556,14.556c8.039,0,14.556-6.517,14.556-14.556
				s-6.517-14.556-14.556-14.556C317.885,82.529,311.368,89.046,311.368,97.086z"/>
			<path style="fill:#E6E6E6;" d="M325.925,84.828c-7.651,0-13.911,5.907-14.498,13.407c-0.03-0.38-0.058-0.761-0.058-1.149
				c0-8.039,6.517-14.556,14.556-14.556c8.039,0,14.556,6.517,14.556,14.556c0,0.388-0.028,0.769-0.058,1.149
				C339.835,90.734,333.576,84.828,325.925,84.828z"/>
			<path style="fill:#E0E0E0;" d="M316.731,97.078c0.436,0,5.136,0,7.653,0c0-2.52,0-7.227,0-7.653c0-0.851,0.69-1.54,1.54-1.54
				c0.85,0,1.54,0.689,1.54,1.54c0,0.576,0,8.617,0,9.193c0,0.85-0.69,1.54-1.54,1.54l0,0l0,0c-0.564,0-8.63,0-9.193,0
				c-0.85,0-1.54-0.69-1.54-1.54S315.881,97.078,316.731,97.078z"/>
			<path style="fill:#F5F5F5;" d="M316.731,98.626c-0.85,0-1.54-0.69-1.54-1.54c0-0.851,0.69-1.54,1.54-1.54
				c0.576,0,8.617,0,9.194,0c0.85,0,1.54,0.689,1.54,1.54c0,0.85-0.69,1.54-1.54,1.54C325.361,98.626,317.295,98.626,316.731,98.626
				z"/>
			<path style="fill:#EBEBEB;" d="M324.384,87.892c0-0.85,0.69-1.54,1.54-1.54c0.85,0,1.54,0.69,1.54,1.54c0,0.576,0,8.617,0,9.193
				c0,0.85-0.69,1.54-1.54,1.54c-0.851,0-1.54-0.69-1.54-1.54C324.384,96.522,324.384,88.456,324.384,87.892z"/>
		</g>
		<g>
			<g>
				<g>
					<polygon style="fill:#EBEBEB;" points="210.963,116.434 183.505,116.434 186.552,81.612 214.01,81.612 					"/>
					<polygon style="fill:#E0E0E0;" points="210.963,116.434 212.274,116.434 215.321,81.612 214.01,81.612 					"/>
					<polygon style="fill:#E0E0E0;" points="208.475,112.884 186.615,112.884 189.041,85.162 210.9,85.162 					"/>
					<polygon style="fill:#FAFAFA;" points="206.875,110.602 188.615,110.602 190.641,87.445 208.901,87.445 					"/>
				</g>
				<path style="fill:#E6E6E6;" d="M198.483,103.799c3.472,0,6.287-2.815,6.287-6.287s-2.815-6.287-6.287-6.287
					C195.011,91.225,195.011,103.799,198.483,103.799z"/>
			</g>
			<g>
				<polygon style="fill:#F0F0F0;" points="187.148,116.434 189.033,94.881 161.7,94.881 159.814,116.434 				"/>
				<polygon style="fill:#E0E0E0;" points="187.148,116.434 189.033,94.881 190.505,94.881 188.62,116.434 				"/>
				<polygon style="fill:#FAFAFA;" points="184.553,114.237 186.055,97.078 164.295,97.078 162.793,114.237 				"/>
				<polygon style="fill:#EBEBEB;" points="182.886,112.824 184.14,98.491 165.962,98.491 164.708,112.824 				"/>
				<path style="fill:#F5F5F5;" d="M174.446,108.861c2.244,0,4.063-1.819,4.063-4.063c0-2.244-1.819-4.063-4.063-4.063
					C172.202,100.735,172.202,108.861,174.446,108.861z"/>
			</g>
		</g>
	</g>
	<g>
		<path style="fill:#F5F5F5;" d="M78.478,340.299c-0.081-0.07-0.125-0.172-0.13-0.279c-0.091-1.963-1.271-21.226-13.069-34.423
			c-9.98-11.164,0.256-3.197,4.698,0.393c0.356,0.288,0.846-0.133,0.613-0.528c-3.131-5.294-10.988-19.285-8.264-22.009
			c2.575-2.575,7.893,10.205,10.267,16.401c0.172,0.449,0.843,0.289,0.793-0.189c-0.684-6.56-1.681-20.279,2.015-19.797
			c3.66,0.477,2.637,18.604,1.915,27.474c-0.04,0.492,0.66,0.624,0.803,0.152c1.651-5.458,4.794-13.525,8.483-11.388
			c5.46,3.163-8.037,14.271-7.193,26.326C80.236,334.249,80.455,342.002,78.478,340.299z"/>
		<g>
			<path style="fill:#F5F5F5;" d="M84.1,343.708c-0.025-0.033,0.067-0.193,0.179-0.27c13.59-9.405,10.244-30.107,6.115-42.948
				c-0.919-2.857-1.876-5.821-2.017-8.874c2.89,3.463,4.626,8.015,6.557,12.132c0.254,0.543,0.887,0.352,0.795-0.237
				c-1.033-6.624-1.44-27.431,4.572-27.061c2.718,0.167-0.306,18.266-0.422,21.959c-0.019,0.595,0.717,0.819,0.87,0.266
				c1.779-6.421,14.052-19.689,16.28-17.036c0.946,1.127-4.788,7.363-6.743,10.292c-3.665,5.489-6.177,11.622-8.513,17.755
				c-0.206,0.541,0.459,1.11,0.747,0.655c2.175-3.432,10.292-11.68,13.037-7.594c1.992,2.964-3.323,7.256-5.941,9.799
				c-4.645,4.514-9.074,9.487-11.325,15.487C96.758,332.122,85.743,345.902,84.1,343.708z"/>
		</g>
		<path style="fill:#E6E6E6;" d="M85.763,341.728c0.094-0.09,0.14-0.217,0.139-0.347c-0.019-2.389,0.145-25.855,13.599-42.654
			c11.382-14.212-0.522-3.865-5.678,0.786c-0.414,0.373-1.036-0.106-0.779-0.6c3.452-6.634,12.069-24.138,8.583-27.265
			c-3.296-2.957-8.911,12.91-11.385,20.59c-0.179,0.556-1.004,0.406-0.975-0.178c0.398-8.01,0.704-24.732-3.751-23.903
			c-4.412,0.821-1.976,22.76-0.515,33.483c0.081,0.594-0.76,0.802-0.965,0.238c-2.364-6.518-6.711-16.105-11.049-13.267
			c-6.421,4.2,10.698,16.797,10.468,31.489C83.23,334.498,83.475,343.925,85.763,341.728z"/>
		<path style="fill:#E6E6E6;" d="M94.852,377.68c4.078-15.204,6.763-36.618,6.763-41.893H71.199c0,5.275,2.686,26.688,6.763,41.893
			c0.749,2.794,3.289,4.731,6.183,4.731h4.524C91.562,382.411,94.102,380.475,94.852,377.68z"/>
	</g>
	<g>
		<path style="fill:#E6E6E6;" d="M427.657,381.433H400.28c-3.326,0-6.071-2.602-6.248-5.924l-3.348-62.786h46.571l-3.349,62.786
			C433.728,378.831,430.984,381.433,427.657,381.433z"/>
		<rect x="407.659" y="316.575" style="fill:#FAFAFA;" width="12.619" height="12.619"/>
		<rect x="407.659" y="332.302" style="fill:#FAFAFA;" width="12.619" height="12.619"/>
		<rect x="407.659" y="348.028" style="fill:#FAFAFA;" width="12.619" height="12.619"/>
		<rect x="407.659" y="363.755" style="fill:#FAFAFA;" width="12.619" height="12.619"/>
		<path style="fill:#F5F5F5;" d="M438.677,312.724h-49.416c-0.69,0-1.249-0.559-1.249-1.249v-2.078c0-0.69,0.559-1.249,1.249-1.249
			h49.416c0.69,0,1.249,0.559,1.249,1.249v2.078C439.925,312.165,439.366,312.724,438.677,312.724z"/>
		<path style="fill:#FAFAFA;" d="M430.863,363.755h-7.336v12.619h6.408c0.17-0.322,0.291-0.674,0.311-1.06L430.863,363.755z"/>
		<path style="fill:#FAFAFA;" d="M404.41,363.755h-7.336l0.616,11.559c0.02,0.387,0.141,0.738,0.311,1.06h6.408V363.755z"/>
		<polygon style="fill:#FAFAFA;" points="404.41,348.028 396.235,348.028 396.908,360.648 404.41,360.648 		"/>
		<polygon style="fill:#FAFAFA;" points="404.41,332.302 395.397,332.302 396.069,344.921 404.41,344.921 		"/>
		<polygon style="fill:#FAFAFA;" points="404.41,316.575 394.557,316.575 395.231,329.194 404.41,329.194 		"/>
		<polygon style="fill:#FAFAFA;" points="423.527,348.028 423.527,360.648 431.029,360.648 431.702,348.028 		"/>
		<polygon style="fill:#FAFAFA;" points="423.527,332.302 423.527,344.921 431.868,344.921 432.54,332.302 		"/>
		<polygon style="fill:#FAFAFA;" points="423.527,316.575 423.527,329.194 432.707,329.194 433.38,316.575 		"/>
	</g>
</g>
<g id="Background_Simple" style="display:none;">
	<g style="display:inline;">
		<path style="fill:#407BFF;" d="M168.531,131.583c-30.063,16.435-119.622,61.992-105.86,133.535
			c14.342,74.557,72.304,75.589,146.051,51.412c68.87-22.578,65.629,56.841,158.784,26.302
			c78.873-25.857,111.907-159.803-2.989-222.303C294.759,82.584,202.51,113.008,168.531,131.583z"/>
		<path style="opacity:0.9;fill:#FFFFFF;" d="M168.531,131.583c-30.063,16.435-119.622,61.992-105.86,133.535
			c14.342,74.557,72.304,75.589,146.051,51.412c68.87-22.578,65.629,56.841,158.784,26.302
			c78.873-25.857,111.907-159.803-2.989-222.303C294.759,82.584,202.51,113.008,168.531,131.583z"/>
	</g>
</g>
<g id="Shadow">
	<ellipse id="_x3C_Path_x3E__1_" style="fill:#F5F5F5;" cx="245.178" cy="412.391" rx="193.889" ry="11.323"/>
</g>
<g id="Extraction">
	<g>
		<g>
			<path style="fill:#263238;" d="M396.506,241.47c-7.077,0-15.439-12.934-22.816-24.347c-4.838-7.485-9.538-14.749-14.54-20.004
				h16.547v-8h-20.292c3.629-4.134,7.065-9.446,10.591-14.9c5.542-8.574,12.44-19.244,17.713-19.244h15.521v-8h-15.521
				c-9.627,0-16.818,11.124-24.431,22.9c-5.543,8.574-12.44,19.244-17.713,19.244h-16.689H193.609h-19.279h-9.911
				c-5.273,0-12.171-10.67-17.713-19.244c-7.613-11.777-14.804-22.9-24.432-22.9h-15.521v8h15.521
				c5.273,0,12.171,10.67,17.713,19.244c3.526,5.454,6.962,10.766,10.591,14.9H78.678v8h80.658
				c-5.002,5.256-9.701,12.519-14.54,20.004c-7.377,11.412-15.739,24.347-22.817,24.347H92.56v8h29.42
				c11.432,0,20.226-13.602,29.535-28.004c7.377-11.412,15.739-24.347,22.816-24.347h19.279h131.267h19.279
				c7.078,0,15.439,12.935,22.817,24.347c9.31,14.401,18.103,28.004,29.534,28.004h29.42v-8H396.506z"/>
		</g>
		<g style="opacity:0.4;">
			<path style="fill:#FFFFFF;" d="M351.724,195.21l-0.426,0.617c5.893,4.065,11.467,12.26,17.621,21.76l0.63-0.408
				C363.351,207.61,357.732,199.352,351.724,195.21z"/>
			<path style="fill:#FFFFFF;" d="M377.337,228.963l-0.614,0.43c3.445,4.928,6.317,8.41,9.038,10.959l0.513-0.547
				C383.591,237.292,380.752,233.847,377.337,228.963z"/>
			<path style="fill:#FFFFFF;" d="M370.834,220.545c1.294,2,2.588,3.989,3.886,5.921l0.623-0.418
				c-1.296-1.929-2.588-3.915-3.879-5.911L370.834,220.545z"/>
			<path style="fill:#FFFFFF;" d="M388.953,242.036l-0.44,0.607c2.771,2.008,5.386,2.983,7.994,2.983h19.844v-0.75h-19.844
				C394.062,244.877,391.591,243.947,388.953,242.036z"/>
			<rect x="419.926" y="244.877" style="fill:#FFFFFF;" width="6" height="0.75"/>
			<rect x="78.678" y="192.526" style="fill:#FFFFFF;" width="6" height="0.75"/>
			<rect x="90.495" y="192.526" style="fill:#FFFFFF;" width="23.267" height="0.75"/>
			<path style="fill:#FFFFFF;" d="M119.578,192.526v0.75h46.534v-0.75h-1.692c-1.756,0-3.523-0.6-5.4-1.832l-0.412,0.627
				c0.759,0.499,1.504,0.899,2.239,1.206H119.578z"/>
			<rect x="288.263" y="192.526" style="fill:#FFFFFF;" width="23.267" height="0.75"/>
			<path style="fill:#FFFFFF;" d="M363.88,193.276v-0.75h-18.743c0.736-0.306,1.48-0.707,2.239-1.206l-0.412-0.627
				c-1.878,1.233-3.645,1.832-5.4,1.832h-7.151h-3.536h-6h-7.53v0.75h7.53h6h3.536h9.742c1.346,0,2.735,0.294,4.128,0.876
				l0.289-0.692c-0.167-0.07-0.334-0.121-0.501-0.183H363.88z"/>
			<rect x="270.813" y="192.526" style="fill:#FFFFFF;" width="11.633" height="0.75"/>
			<rect x="218.462" y="192.526" style="fill:#FFFFFF;" width="46.534" height="0.75"/>
			<rect x="369.697" y="192.526" style="fill:#FFFFFF;" width="6" height="0.75"/>
			<path style="fill:#FFFFFF;" d="M361.275,174.62l-0.629-0.409c-3.116,4.785-6.746,10.19-10.397,13.775l0.525,0.535
				C354.479,184.884,358.137,179.439,361.275,174.62z"/>
			<path style="fill:#FFFFFF;" d="M383.709,151.132h5.184v-0.75h-5.184h0c-7.637,0-14.578,10.723-20.7,20.182l0.63,0.407
				C369.657,161.672,376.479,151.131,383.709,151.132z"/>
			<rect x="393.229" y="150.382" style="fill:#FFFFFF;" width="6" height="0.75"/>
			<path style="fill:#FFFFFF;" d="M155.735,187.986c-3.651-3.585-7.281-8.99-10.398-13.775l-0.629,0.409
				c3.138,4.818,6.796,10.264,10.501,13.901L155.735,187.986z"/>
			<path style="fill:#FFFFFF;" d="M142.346,170.971l0.63-0.407c-6.123-9.46-13.063-20.183-20.701-20.182h-5.184v0.75h5.184
				C129.505,151.131,136.327,161.672,142.346,170.971z"/>
			<rect x="106.755" y="150.382" style="fill:#FFFFFF;" width="6" height="0.75"/>
			<polygon style="fill:#FFFFFF;" points="189.379,192.526 187.609,192.526 187.609,193.276 189.379,193.276 193.609,193.276 
				212.645,193.276 212.645,192.526 193.609,192.526 			"/>
			<path style="fill:#FFFFFF;" d="M148.936,217.178l0.63,0.408c6.153-9.499,11.726-17.693,17.621-21.759l-0.426-0.617
				C160.753,199.354,155.134,207.611,148.936,217.178z"/>
			<path style="fill:#FFFFFF;" d="M174.331,192.526h-2.402v0.289c-0.669,0.154-1.342,0.363-2.015,0.644l0.289,0.692
				c1.393-0.581,2.783-0.876,4.128-0.876h9.231h0.511v-0.75h-0.511H174.331z"/>
			<path style="fill:#FFFFFF;" d="M121.98,244.877h-19.844v0.75h19.844c2.607,0,5.222-0.976,7.994-2.983l-0.441-0.607
				C126.895,243.947,124.424,244.877,121.98,244.877z"/>
			<path style="fill:#FFFFFF;" d="M143.143,226.049l0.623,0.418c1.298-1.932,2.592-3.922,3.886-5.921l-0.63-0.407
				C145.731,222.134,144.439,224.12,143.143,226.049z"/>
			<path style="fill:#FFFFFF;" d="M132.214,239.805l0.513,0.547c2.721-2.549,5.592-6.031,9.038-10.959l-0.614-0.43
				C137.734,233.847,134.895,237.292,132.214,239.805z"/>
			<rect x="92.56" y="244.877" style="fill:#FFFFFF;" width="6" height="0.75"/>
		</g>
	</g>
</g>
<g id="Folders">
	<g>
		<g>
			<path style="fill:#407BFF;" d="M122.325,226.146h-7.333c-1.725,0-3.336,0.865-4.288,2.304l-1.073,1.621
				c-0.874,1.32-2.351,2.114-3.934,2.114H86.781c-1.697,0-3.072,1.375-3.072,3.072v29.536h42.646v-32.608l-0.376-2.836
				C125.737,227.516,124.174,226.146,122.325,226.146z"/>
			<path style="opacity:0.2;fill:#FFFFFF;" d="M122.325,226.146h-7.333c-1.725,0-3.336,0.865-4.288,2.304l-1.073,1.621
				c-0.874,1.32-2.351,2.114-3.934,2.114H86.781c-1.697,0-3.072,1.375-3.072,3.072v29.536h42.646v-32.608l-0.376-2.836
				C125.737,227.516,124.174,226.146,122.325,226.146z"/>
		</g>
		<g>
			<rect x="86.907" y="235.917" style="fill:#263238;" width="36.249" height="24.788"/>
			<rect x="86.907" y="235.917" style="opacity:0.9;fill:#FFFFFF;" width="36.249" height="24.788"/>
		</g>
		<g>
			<path style="fill:#407BFF;" d="M126.355,264.793H83.709l-6.255-22.782c-0.474-1.726,0.825-3.429,2.614-3.429h34.949
				c2.446,0,4.591,1.635,5.239,3.994L126.355,264.793z"/>
			<path style="opacity:0.6;fill:#FFFFFF;" d="M126.355,264.793H83.709l-6.255-22.782c-0.474-1.726,0.825-3.429,2.614-3.429h34.949
				c2.446,0,4.591,1.635,5.239,3.994L126.355,264.793z"/>
		</g>
	</g>
	<g>
		<g>
			<path style="fill:#407BFF;" d="M75.199,117.566h7.911c1.861,0,3.599,0.933,4.626,2.485l1.158,1.749
				c0.943,1.424,2.537,2.28,4.245,2.28h20.406c1.83,0,3.314,1.484,3.314,3.314v29.157c0,1.495-1.212,2.707-2.707,2.707H73.558
				c-1.495,0-2.707-1.212-2.707-2.707v-32.472l0.405-3.059C71.518,119.044,73.204,117.566,75.199,117.566z"/>
			<path style="opacity:0.6;fill:#FFFFFF;" d="M75.199,117.566h7.911c1.861,0,3.599,0.933,4.626,2.485l1.158,1.749
				c0.943,1.424,2.537,2.28,4.245,2.28h20.406c1.83,0,3.314,1.484,3.314,3.314v29.157c0,1.495-1.212,2.707-2.707,2.707H73.558
				c-1.495,0-2.707-1.212-2.707-2.707v-32.472l0.405-3.059C71.518,119.044,73.204,117.566,75.199,117.566z"/>
		</g>
		<g>
			<rect x="104.498" y="124.081" style="fill:#263238;" width="4.087" height="28.335"/>
			<rect x="104.498" y="124.081" style="opacity:0.5;fill:#FFFFFF;" width="4.087" height="28.335"/>
		</g>
		<rect x="103.528" y="125.426" style="fill:#263238;" width="3.136" height="2.333"/>
		<rect x="103.528" y="130.507" style="fill:#263238;" width="3.136" height="2.333"/>
		<rect x="103.528" y="135.587" style="fill:#263238;" width="3.136" height="2.333"/>
		<rect x="103.528" y="140.668" style="fill:#263238;" width="3.136" height="2.333"/>
		<rect x="103.528" y="145.749" style="fill:#263238;" width="3.136" height="2.333"/>
		<g>
			<rect x="103.528" y="125.426" style="opacity:0.7;fill:#FFFFFF;" width="3.136" height="2.333"/>
			<rect x="103.528" y="130.507" style="opacity:0.7;fill:#FFFFFF;" width="3.136" height="2.333"/>
			<rect x="103.528" y="135.587" style="opacity:0.7;fill:#FFFFFF;" width="3.136" height="2.333"/>
			<rect x="103.528" y="140.668" style="opacity:0.7;fill:#FFFFFF;" width="3.136" height="2.333"/>
			<rect x="103.528" y="145.749" style="opacity:0.7;fill:#FFFFFF;" width="3.136" height="2.333"/>
		</g>
		<g>
			<g>
				<rect x="106.569" y="127.759" style="fill:#263238;" width="3.136" height="2.333"/>
				<rect x="106.569" y="132.84" style="fill:#263238;" width="3.136" height="2.333"/>
				<rect x="106.569" y="137.921" style="fill:#263238;" width="3.136" height="2.333"/>
				<rect x="106.569" y="143.001" style="fill:#263238;" width="3.136" height="2.333"/>
				<rect x="106.569" y="148.082" style="fill:#263238;" width="3.136" height="2.333"/>
			</g>
			<g style="opacity:0.8;">
				<rect x="106.569" y="127.759" style="fill:#FFFFFF;" width="3.136" height="2.333"/>
				<rect x="106.569" y="132.84" style="fill:#FFFFFF;" width="3.136" height="2.333"/>
				<rect x="106.569" y="137.921" style="fill:#FFFFFF;" width="3.136" height="2.333"/>
				<rect x="106.569" y="143.001" style="fill:#FFFFFF;" width="3.136" height="2.333"/>
				<rect x="106.569" y="148.082" style="fill:#FFFFFF;" width="3.136" height="2.333"/>
			</g>
		</g>
		<g>
			<path style="fill:#263238;" d="M102.168,150.415v9.292h8.993v-9.292H102.168z M109.715,158.022h-5.961v-5.92h5.961V158.022z"/>
			<path style="opacity:0.7;fill:#FFFFFF;" d="M102.168,150.415v9.292h8.993v-9.292H102.168z M109.715,158.022h-5.961v-5.92h5.961
				V158.022z"/>
		</g>
	</g>
	<g>
		<g>
			<polygon style="fill:#407BFF;" points="104.697,171.148 63.011,171.148 63.011,180.441 72.289,189.719 113.975,189.719 
				113.975,180.427 			"/>
			<polygon style="opacity:0.3;fill:#FFFFFF;" points="104.697,171.148 63.011,171.148 63.011,180.441 72.289,189.719 
				113.975,189.719 113.975,180.427 			"/>
		</g>
		<g>
			<rect x="72.289" y="189.712" style="fill:#407BFF;" width="41.686" height="9.292"/>
			<rect x="72.289" y="189.712" style="opacity:0.3;fill:#FFFFFF;" width="41.686" height="9.292"/>
		</g>
		<g>
			<rect x="72.289" y="198.997" style="fill:#407BFF;" width="41.686" height="9.292"/>
			<rect x="72.289" y="198.997" style="opacity:0.6;fill:#FFFFFF;" width="41.686" height="9.292"/>
		</g>
		<g>
			<rect x="72.289" y="180.427" style="fill:#407BFF;" width="41.686" height="9.292"/>
		</g>
		<g>
			<polygon style="fill:#407BFF;" points="88.013,208.29 97.369,208.29 97.369,180.427 88.091,171.148 78.734,171.148 
				88.013,180.427 			"/>
			<polygon style="opacity:0.2;" points="88.013,208.29 97.369,208.29 97.369,180.427 88.091,171.148 78.734,171.148 
				88.013,180.427 			"/>
		</g>
		<g>
			<path style="fill:#263238;" d="M85.523,187.065v14.586h14.116v-14.586H85.523z M97.369,199.004h-9.357v-9.292h9.357V199.004z"/>
			<path style="opacity:0.5;fill:#FFFFFF;" d="M85.523,187.065v14.586h14.116v-14.586H85.523z M97.369,199.004h-9.357v-9.292h9.357
				V199.004z"/>
		</g>
		<g>
			<polygon style="fill:#263238;" points="63.011,171.148 63.011,180.441 72.289,189.719 72.289,180.427 			"/>
			<polygon style="opacity:0.5;fill:#FFFFFF;" points="63.011,171.148 63.011,180.441 72.289,189.719 72.289,180.427 			"/>
		</g>
		<g>
			<polygon style="fill:#263238;" points="63.011,180.434 63.011,189.726 72.289,199.004 72.289,189.712 			"/>
			<polygon style="opacity:0.6;fill:#FFFFFF;" points="63.011,180.434 63.011,189.726 72.289,199.004 72.289,189.712 			"/>
		</g>
		<g>
			<polygon style="fill:#263238;" points="63.011,189.719 63.011,199.011 72.289,208.29 72.289,198.997 			"/>
			<polygon style="opacity:0.8;fill:#FFFFFF;" points="63.011,189.719 63.011,199.011 72.289,208.29 72.289,198.997 			"/>
		</g>
	</g>
</g>
<g id="Documents">
	<g>
		<g>
			<rect x="388.476" y="213.888" style="fill:#407BFF;" width="45.463" height="61.178"/>
			<rect x="388.476" y="213.888" style="opacity:0.7;fill:#FFFFFF;" width="45.463" height="61.178"/>
		</g>
		<rect x="391.446" y="216.858" style="opacity:0.7;fill:#FFFFFF;" width="39.523" height="15.925"/>
		<rect x="391.446" y="236.515" style="opacity:0.7;fill:#FFFFFF;" width="39.523" height="15.925"/>
		<polygon style="fill:#407BFF;" points="430.969,225.451 427.281,220.956 422.727,226.506 418.178,219.966 413.346,224.798 
			408.606,222.133 404.294,229.292 399.982,222.132 395.089,224.896 391.446,222.838 391.446,224.543 395.089,226.601 
			399.456,224.135 404.294,232.17 409.134,224.134 413.6,226.645 417.973,222.272 422.63,228.967 427.281,223.297 430.969,227.791 
					"/>
		<polygon style="opacity:0.5;fill:#FFFFFF;" points="430.969,225.451 427.281,220.956 422.727,226.506 418.178,219.966 
			413.346,224.798 408.606,222.133 404.294,229.292 399.982,222.132 395.089,224.896 391.446,222.838 391.446,224.543 
			395.089,226.601 399.456,224.135 404.294,232.17 409.134,224.134 413.6,226.645 417.973,222.272 422.63,228.967 427.281,223.297 
			430.969,227.791 		"/>
		<polygon style="fill:#407BFF;" points="430.969,241.35 427.254,243.448 422.361,240.684 418.048,247.844 413.737,240.686 
			408.997,243.351 404.165,238.518 399.616,245.058 395.062,239.508 391.446,243.916 391.446,246.256 395.062,241.85 
			399.714,247.518 404.37,240.824 408.743,245.198 413.209,242.687 418.048,250.723 422.888,242.688 427.254,245.153 
			430.969,243.056 		"/>
		<polygon style="opacity:0.5;fill:#FFFFFF;" points="430.969,241.35 427.254,243.448 422.361,240.684 418.048,247.844 
			413.737,240.686 408.997,243.351 404.165,238.518 399.616,245.058 395.062,239.508 391.446,243.916 391.446,246.256 
			395.062,241.85 399.714,247.518 404.37,240.824 408.743,245.198 413.209,242.687 418.048,250.723 422.888,242.688 
			427.254,245.153 430.969,243.056 		"/>
		<g>
			<g>
				<g>
					<path style="fill:#263238;" d="M407.768,256.913c7.549,0,15.097,0,22.646,0c0.955,0,0.957-1.485,0-1.485
						c-7.549,0-15.097,0-22.646,0C406.813,255.428,406.811,256.913,407.768,256.913L407.768,256.913z"/>
				</g>
				<g>
					<path style="fill:#263238;" d="M407.768,260.956c6.559,0,13.117,0,19.676,0c0.956,0,0.957-1.485,0-1.485
						c-6.559,0-13.117,0-19.676,0C406.813,259.471,406.811,260.956,407.768,260.956L407.768,260.956z"/>
				</g>
				<g>
					<path style="fill:#263238;" d="M407.768,264.998c6.559,0,13.117,0,19.676,0c0.956,0,0.957-1.485,0-1.485
						c-6.559,0-13.117,0-19.676,0C406.813,263.513,406.811,264.998,407.768,264.998L407.768,264.998z"/>
				</g>
				<g>
					<path style="fill:#263238;" d="M407.768,269.041c6.889,0,13.777,0,20.666,0c0.956,0,0.957-1.485,0-1.485
						c-6.889,0-13.777,0-20.666,0C406.813,267.556,406.811,269.041,407.768,269.041L407.768,269.041z"/>
				</g>
			</g>
			<g style="opacity:0.4;">
				<g>
					<path style="fill:#FFFFFF;" d="M407.768,256.913c7.549,0,15.097,0,22.646,0c0.955,0,0.957-1.485,0-1.485
						c-7.549,0-15.097,0-22.646,0C406.813,255.428,406.811,256.913,407.768,256.913L407.768,256.913z"/>
				</g>
				<g>
					<path style="fill:#FFFFFF;" d="M407.768,260.956c6.559,0,13.117,0,19.676,0c0.956,0,0.957-1.485,0-1.485
						c-6.559,0-13.117,0-19.676,0C406.813,259.471,406.811,260.956,407.768,260.956L407.768,260.956z"/>
				</g>
				<g>
					<path style="fill:#FFFFFF;" d="M407.768,264.998c6.559,0,13.117,0,19.676,0c0.956,0,0.957-1.485,0-1.485
						c-6.559,0-13.117,0-19.676,0C406.813,263.513,406.811,264.998,407.768,264.998L407.768,264.998z"/>
				</g>
				<g>
					<path style="fill:#FFFFFF;" d="M407.768,269.041c6.889,0,13.777,0,20.666,0c0.956,0,0.957-1.485,0-1.485
						c-6.889,0-13.777,0-20.666,0C406.813,267.556,406.811,269.041,407.768,269.041L407.768,269.041z"/>
				</g>
			</g>
		</g>
	</g>
	<g>
		<g>
			<rect x="390.284" y="119.785" style="fill:#407BFF;" width="41.33" height="55.616"/>
			<rect x="390.284" y="119.785" style="opacity:0.6;fill:#FFFFFF;" width="41.33" height="55.616"/>
		</g>
		<rect x="392.984" y="122.485" style="opacity:0.7;fill:#FFFFFF;" width="35.93" height="14.477"/>
		<g>
			<g>
				<path style="fill:#263238;" d="M407.93,141.312c6.862,0,13.725,0,20.587,0c0.869,0,0.87-1.35,0-1.35c-6.862,0-13.725,0-20.587,0
					C407.061,139.962,407.06,141.312,407.93,141.312L407.93,141.312z"/>
			</g>
			<g>
				<path style="fill:#263238;" d="M407.93,144.987c5.962,0,11.925,0,17.887,0c0.869,0,0.87-1.35,0-1.35c-5.962,0-11.925,0-17.887,0
					C407.061,143.637,407.06,144.987,407.93,144.987L407.93,144.987z"/>
			</g>
			<g>
				<path style="fill:#263238;" d="M407.93,148.662c5.962,0,11.925,0,17.887,0c0.869,0,0.87-1.35,0-1.35c-5.962,0-11.925,0-17.887,0
					C407.061,147.312,407.06,148.662,407.93,148.662L407.93,148.662z"/>
			</g>
			<g>
				<path style="fill:#263238;" d="M407.93,152.337c6.262,0,12.525,0,18.787,0c0.869,0,0.87-1.35,0-1.35c-6.262,0-12.525,0-18.787,0
					C407.061,150.987,407.06,152.337,407.93,152.337L407.93,152.337z"/>
			</g>
			<g>
				<path style="fill:#263238;" d="M407.93,156.012c5.062,0,10.125,0,15.187,0c0.869,0,0.87-1.35,0-1.35c-5.062,0-10.125,0-15.187,0
					C407.061,154.662,407.06,156.012,407.93,156.012L407.93,156.012z"/>
			</g>
			<g>
				<path style="fill:#263238;" d="M407.93,159.687c6.862,0,13.725,0,20.587,0c0.869,0,0.87-1.35,0-1.35c-6.862,0-13.725,0-20.587,0
					C407.061,158.337,407.06,159.687,407.93,159.687L407.93,159.687z"/>
			</g>
			<g>
				<path style="fill:#263238;" d="M407.93,163.362c5.962,0,11.925,0,17.887,0c0.869,0,0.87-1.35,0-1.35c-5.962,0-11.925,0-17.887,0
					C407.061,162.012,407.06,163.362,407.93,163.362L407.93,163.362z"/>
			</g>
			<g>
				<path style="fill:#263238;" d="M407.93,167.037c5.962,0,11.925,0,17.887,0c0.869,0,0.87-1.35,0-1.35c-5.962,0-11.925,0-17.887,0
					C407.061,165.687,407.06,167.037,407.93,167.037L407.93,167.037z"/>
			</g>
			<g>
				<path style="fill:#263238;" d="M407.93,170.712c6.262,0,12.525,0,18.787,0c0.869,0,0.87-1.35,0-1.35c-6.262,0-12.525,0-18.787,0
					C407.061,169.362,407.06,170.712,407.93,170.712L407.93,170.712z"/>
			</g>
			<g style="opacity:0.4;">
				<path style="fill:#FFFFFF;" d="M407.93,141.312c6.862,0,13.725,0,20.587,0c0.869,0,0.87-1.35,0-1.35c-6.862,0-13.725,0-20.587,0
					C407.061,139.962,407.06,141.312,407.93,141.312L407.93,141.312z"/>
			</g>
			<g style="opacity:0.4;">
				<path style="fill:#FFFFFF;" d="M407.93,144.987c5.962,0,11.925,0,17.887,0c0.869,0,0.87-1.35,0-1.35c-5.962,0-11.925,0-17.887,0
					C407.061,143.637,407.06,144.987,407.93,144.987L407.93,144.987z"/>
			</g>
			<g style="opacity:0.4;">
				<path style="fill:#FFFFFF;" d="M407.93,148.662c5.962,0,11.925,0,17.887,0c0.869,0,0.87-1.35,0-1.35c-5.962,0-11.925,0-17.887,0
					C407.061,147.312,407.06,148.662,407.93,148.662L407.93,148.662z"/>
			</g>
			<g style="opacity:0.4;">
				<path style="fill:#FFFFFF;" d="M407.93,152.337c6.262,0,12.525,0,18.787,0c0.869,0,0.87-1.35,0-1.35c-6.262,0-12.525,0-18.787,0
					C407.061,150.987,407.06,152.337,407.93,152.337L407.93,152.337z"/>
			</g>
			<g style="opacity:0.4;">
				<path style="fill:#FFFFFF;" d="M407.93,156.012c5.062,0,10.125,0,15.187,0c0.869,0,0.87-1.35,0-1.35c-5.062,0-10.125,0-15.187,0
					C407.061,154.662,407.06,156.012,407.93,156.012L407.93,156.012z"/>
			</g>
			<g style="opacity:0.4;">
				<path style="fill:#FFFFFF;" d="M407.93,159.687c6.862,0,13.725,0,20.587,0c0.869,0,0.87-1.35,0-1.35c-6.862,0-13.725,0-20.587,0
					C407.061,158.337,407.06,159.687,407.93,159.687L407.93,159.687z"/>
			</g>
			<g style="opacity:0.4;">
				<path style="fill:#FFFFFF;" d="M407.93,163.362c5.962,0,11.925,0,17.887,0c0.869,0,0.87-1.35,0-1.35c-5.962,0-11.925,0-17.887,0
					C407.061,162.012,407.06,163.362,407.93,163.362L407.93,163.362z"/>
			</g>
			<g style="opacity:0.4;">
				<path style="fill:#FFFFFF;" d="M407.93,167.037c5.962,0,11.925,0,17.887,0c0.869,0,0.87-1.35,0-1.35c-5.962,0-11.925,0-17.887,0
					C407.061,165.687,407.06,167.037,407.93,167.037L407.93,167.037z"/>
			</g>
			<g style="opacity:0.4;">
				<path style="fill:#FFFFFF;" d="M407.93,170.712c6.262,0,12.525,0,18.787,0c0.869,0,0.87-1.35,0-1.35c-6.262,0-12.525,0-18.787,0
					C407.061,169.362,407.06,170.712,407.93,170.712L407.93,170.712z"/>
			</g>
		</g>
		<g>
			<rect x="392.984" y="140.637" style="fill:#407BFF;" width="10.128" height="10.127"/>
			<rect x="392.984" y="140.637" style="opacity:0.3;fill:#FFFFFF;" width="10.128" height="10.127"/>
		</g>
		<g>
			<rect x="401.353" y="130.166" style="fill:#407BFF;" width="2.742" height="5.483"/>
			<rect x="406.836" y="127.424" style="fill:#407BFF;" width="2.742" height="8.225"/>
			<rect x="412.32" y="128.795" style="fill:#407BFF;" width="2.742" height="6.854"/>
			<rect x="417.803" y="124.683" style="fill:#407BFF;" width="2.742" height="10.967"/>
		</g>
	</g>
	<g>
		<g>
			<rect x="370.044" y="165.991" style="fill:#407BFF;" width="41.33" height="55.616"/>
			<rect x="370.044" y="165.991" style="opacity:0.8;fill:#FFFFFF;" width="41.33" height="55.616"/>
		</g>
		<g>
			<g>
				<g>
					<path style="fill:#263238;" d="M387.69,171.952c6.862,0,13.725,0,20.587,0c0.869,0,0.87-1.35,0-1.35
						c-6.862,0-13.725,0-20.587,0C386.821,170.602,386.82,171.952,387.69,171.952L387.69,171.952z"/>
				</g>
				<g>
					<path style="fill:#263238;" d="M387.69,175.627c5.962,0,11.925,0,17.887,0c0.869,0,0.87-1.35,0-1.35
						c-5.962,0-11.925,0-17.887,0C386.821,174.277,386.82,175.627,387.69,175.627L387.69,175.627z"/>
				</g>
				<g>
					<path style="fill:#263238;" d="M387.69,179.302c5.962,0,11.925,0,17.887,0c0.869,0,0.87-1.35,0-1.35
						c-5.962,0-11.925,0-17.887,0C386.821,177.952,386.82,179.302,387.69,179.302L387.69,179.302z"/>
				</g>
				<g>
					<path style="fill:#263238;" d="M387.69,182.977c6.262,0,12.525,0,18.787,0c0.869,0,0.87-1.35,0-1.35
						c-6.262,0-12.525,0-18.787,0C386.821,181.627,386.82,182.977,387.69,182.977L387.69,182.977z"/>
				</g>
				<g>
					<path style="fill:#263238;" d="M387.69,186.652c5.062,0,10.125,0,15.187,0c0.869,0,0.87-1.35,0-1.35
						c-5.062,0-10.125,0-15.187,0C386.821,185.302,386.82,186.652,387.69,186.652L387.69,186.652z"/>
				</g>
				<g>
					<path style="fill:#263238;" d="M387.69,190.327c6.862,0,13.725,0,20.587,0c0.869,0,0.87-1.35,0-1.35
						c-6.862,0-13.725,0-20.587,0C386.821,188.977,386.82,190.327,387.69,190.327L387.69,190.327z"/>
				</g>
				<g>
					<path style="fill:#263238;" d="M387.69,194.002c5.962,0,11.925,0,17.887,0c0.869,0,0.87-1.35,0-1.35
						c-5.962,0-11.925,0-17.887,0C386.821,192.652,386.82,194.002,387.69,194.002L387.69,194.002z"/>
				</g>
				<g>
					<path style="fill:#263238;" d="M387.69,197.677c5.962,0,11.925,0,17.887,0c0.869,0,0.87-1.35,0-1.35
						c-5.962,0-11.925,0-17.887,0C386.821,196.327,386.82,197.677,387.69,197.677L387.69,197.677z"/>
				</g>
				<g>
					<path style="fill:#263238;" d="M387.69,205.031c5.062,0,10.125,0,15.187,0c0.869,0,0.87-1.35,0-1.35
						c-5.062,0-10.125,0-15.187,0C386.821,203.681,386.82,205.031,387.69,205.031L387.69,205.031z"/>
				</g>
				<g>
					<path style="fill:#263238;" d="M387.69,208.706c6.862,0,13.725,0,20.587,0c0.869,0,0.87-1.35,0-1.35
						c-6.862,0-13.725,0-20.587,0C386.821,207.356,386.82,208.706,387.69,208.706L387.69,208.706z"/>
				</g>
				<g>
					<path style="fill:#263238;" d="M387.69,212.381c5.962,0,11.925,0,17.887,0c0.869,0,0.87-1.35,0-1.35
						c-5.962,0-11.925,0-17.887,0C386.821,211.031,386.82,212.381,387.69,212.381L387.69,212.381z"/>
				</g>
				<g>
					<path style="fill:#263238;" d="M387.69,216.056c5.962,0,11.925,0,17.887,0c0.869,0,0.87-1.35,0-1.35
						c-5.962,0-11.925,0-17.887,0C386.821,214.706,386.82,216.056,387.69,216.056L387.69,216.056z"/>
				</g>
				<g>
					<path style="fill:#263238;" d="M387.69,201.352c6.262,0,12.525,0,18.787,0c0.869,0,0.87-1.35,0-1.35
						c-6.262,0-12.525,0-18.787,0C386.821,200.002,386.82,201.352,387.69,201.352L387.69,201.352z"/>
				</g>
			</g>
			<g style="opacity:0.4;">
				<g>
					<path style="fill:#FFFFFF;" d="M387.69,171.952c6.862,0,13.725,0,20.587,0c0.869,0,0.87-1.35,0-1.35
						c-6.862,0-13.725,0-20.587,0C386.821,170.602,386.82,171.952,387.69,171.952L387.69,171.952z"/>
				</g>
				<g>
					<path style="fill:#FFFFFF;" d="M387.69,175.627c5.962,0,11.925,0,17.887,0c0.869,0,0.87-1.35,0-1.35
						c-5.962,0-11.925,0-17.887,0C386.821,174.277,386.82,175.627,387.69,175.627L387.69,175.627z"/>
				</g>
				<g>
					<path style="fill:#FFFFFF;" d="M387.69,179.302c5.962,0,11.925,0,17.887,0c0.869,0,0.87-1.35,0-1.35
						c-5.962,0-11.925,0-17.887,0C386.821,177.952,386.82,179.302,387.69,179.302L387.69,179.302z"/>
				</g>
				<g>
					<path style="fill:#FFFFFF;" d="M387.69,182.977c6.262,0,12.525,0,18.787,0c0.869,0,0.87-1.35,0-1.35
						c-6.262,0-12.525,0-18.787,0C386.821,181.627,386.82,182.977,387.69,182.977L387.69,182.977z"/>
				</g>
				<g>
					<path style="fill:#FFFFFF;" d="M387.69,186.652c5.062,0,10.125,0,15.187,0c0.869,0,0.87-1.35,0-1.35
						c-5.062,0-10.125,0-15.187,0C386.821,185.302,386.82,186.652,387.69,186.652L387.69,186.652z"/>
				</g>
				<g>
					<path style="fill:#FFFFFF;" d="M387.69,190.327c6.862,0,13.725,0,20.587,0c0.869,0,0.87-1.35,0-1.35
						c-6.862,0-13.725,0-20.587,0C386.821,188.977,386.82,190.327,387.69,190.327L387.69,190.327z"/>
				</g>
				<g>
					<path style="fill:#FFFFFF;" d="M387.69,194.002c5.962,0,11.925,0,17.887,0c0.869,0,0.87-1.35,0-1.35
						c-5.962,0-11.925,0-17.887,0C386.821,192.652,386.82,194.002,387.69,194.002L387.69,194.002z"/>
				</g>
				<g>
					<path style="fill:#FFFFFF;" d="M387.69,197.677c5.962,0,11.925,0,17.887,0c0.869,0,0.87-1.35,0-1.35
						c-5.962,0-11.925,0-17.887,0C386.821,196.327,386.82,197.677,387.69,197.677L387.69,197.677z"/>
				</g>
				<g>
					<path style="fill:#FFFFFF;" d="M387.69,205.031c5.062,0,10.125,0,15.187,0c0.869,0,0.87-1.35,0-1.35
						c-5.062,0-10.125,0-15.187,0C386.821,203.681,386.82,205.031,387.69,205.031L387.69,205.031z"/>
				</g>
				<g>
					<path style="fill:#FFFFFF;" d="M387.69,208.706c6.862,0,13.725,0,20.587,0c0.869,0,0.87-1.35,0-1.35
						c-6.862,0-13.725,0-20.587,0C386.821,207.356,386.82,208.706,387.69,208.706L387.69,208.706z"/>
				</g>
				<g>
					<path style="fill:#FFFFFF;" d="M387.69,212.381c5.962,0,11.925,0,17.887,0c0.869,0,0.87-1.35,0-1.35
						c-5.962,0-11.925,0-17.887,0C386.821,211.031,386.82,212.381,387.69,212.381L387.69,212.381z"/>
				</g>
				<g>
					<path style="fill:#FFFFFF;" d="M387.69,216.056c5.962,0,11.925,0,17.887,0c0.869,0,0.87-1.35,0-1.35
						c-5.962,0-11.925,0-17.887,0C386.821,214.706,386.82,216.056,387.69,216.056L387.69,216.056z"/>
				</g>
				<g>
					<path style="fill:#FFFFFF;" d="M387.69,201.352c6.262,0,12.525,0,18.787,0c0.869,0,0.87-1.35,0-1.35
						c-6.262,0-12.525,0-18.787,0C386.821,200.002,386.82,201.352,387.69,201.352L387.69,201.352z"/>
				</g>
			</g>
		</g>
		<g>
			<path style="fill:#407BFF;" d="M376.387,190.57l-1.631-1.631c-1.123,1.123-1.818,2.675-1.818,4.389h2.307
				C375.245,192.251,375.682,191.276,376.387,190.57z"/>
			<path style="fill:#407BFF;" d="M379.145,197.227c-2.154,0-3.899-1.746-3.899-3.899h-2.307c0,3.428,2.779,6.206,6.206,6.206
				V197.227z"/>
			<path style="opacity:0.3;fill:#FFFFFF;" d="M379.145,197.227c-2.154,0-3.899-1.746-3.899-3.899h-2.307
				c0,3.428,2.779,6.206,6.206,6.206V197.227z"/>
			<path style="fill:#407BFF;" d="M376.387,190.57c0.706-0.706,1.681-1.142,2.757-1.142v-2.307c-1.714,0-3.265,0.695-4.388,1.818
				L376.387,190.57z"/>
			<path style="opacity:0.5;" d="M376.387,190.57c0.706-0.706,1.681-1.142,2.757-1.142v-2.307c-1.714,0-3.265,0.695-4.388,1.818
				L376.387,190.57z"/>
			<path style="fill:#407BFF;" d="M383.044,193.327c0,2.154-1.746,3.899-3.899,3.899v2.307c3.428,0,6.206-2.779,6.206-6.206
				s-2.779-6.206-6.206-6.206v2.307C381.298,189.428,383.044,191.174,383.044,193.327z"/>
			<path style="opacity:0.2;" d="M381.902,196.085l1.631,1.631c1.123-1.123,1.818-2.675,1.818-4.389h-2.307
				C383.044,194.404,382.608,195.379,381.902,196.085z"/>
		</g>
		<g>
			<g>
				<path style="fill:#407BFF;" d="M376.387,178.853l-1.631,1.631c1.123,1.123,2.675,1.818,4.389,1.818v-2.307
					C378.068,179.995,377.093,179.559,376.387,178.853z"/>
				<path style="fill:#407BFF;" d="M383.044,176.096c0,2.154-1.746,3.899-3.899,3.899v2.307c3.428,0,6.206-2.779,6.206-6.206
					H383.044z"/>
				<path style="opacity:0.3;fill:#FFFFFF;" d="M383.044,176.096c0,2.154-1.746,3.899-3.899,3.899v2.307
					c3.428,0,6.206-2.779,6.206-6.206H383.044z"/>
				<path style="fill:#407BFF;" d="M376.387,178.853c-0.706-0.706-1.142-1.68-1.142-2.757h-2.307c0,1.714,0.695,3.265,1.818,4.389
					L376.387,178.853z"/>
				<path style="opacity:0.5;" d="M376.387,178.853c-0.706-0.706-1.142-1.68-1.142-2.757h-2.307c0,1.714,0.695,3.265,1.818,4.389
					L376.387,178.853z"/>
				<path style="fill:#407BFF;" d="M379.145,172.197c2.154,0,3.899,1.746,3.899,3.899h2.307c0-3.428-2.779-6.206-6.206-6.206
					s-6.206,2.779-6.206,6.206h2.307C375.245,173.943,376.991,172.197,379.145,172.197z"/>
				<path style="opacity:0.2;" d="M381.902,173.339l1.631-1.631c-1.123-1.123-2.675-1.818-4.389-1.818v2.307
					C380.221,172.197,381.196,172.633,381.902,173.339z"/>
			</g>
			<g>
				<path style="fill:#407BFF;" d="M381.902,207.802l1.631-1.632c1.123,1.123,1.818,2.675,1.818,4.389h-2.307
					C383.044,209.482,382.607,208.507,381.902,207.802z"/>
				<path style="fill:#407BFF;" d="M379.145,214.458c2.154,0,3.899-1.746,3.899-3.899h2.307c0,3.428-2.779,6.206-6.206,6.206
					V214.458z"/>
				<path style="opacity:0.3;fill:#FFFFFF;" d="M379.145,214.458c2.154,0,3.899-1.746,3.899-3.899h2.307
					c0,3.428-2.779,6.206-6.206,6.206V214.458z"/>
				<path style="fill:#407BFF;" d="M381.902,207.802c-0.706-0.706-1.68-1.142-2.757-1.142v-2.307c1.714,0,3.265,0.695,4.389,1.818
					L381.902,207.802z"/>
				<path style="opacity:0.5;" d="M381.902,207.802c-0.706-0.706-1.68-1.142-2.757-1.142v-2.307c1.714,0,3.265,0.695,4.389,1.818
					L381.902,207.802z"/>
				<path style="fill:#407BFF;" d="M375.245,210.559c0,2.154,1.746,3.899,3.899,3.899v2.307c-3.428,0-6.206-2.779-6.206-6.206
					s2.779-6.206,6.206-6.206v2.307C376.991,206.659,375.245,208.405,375.245,210.559z"/>
				<path style="opacity:0.2;" d="M376.387,213.316l-1.631,1.631c-1.123-1.123-1.818-2.675-1.818-4.389h2.307
					C375.245,211.635,375.682,212.61,376.387,213.316z"/>
			</g>
		</g>
	</g>
</g>
<g id="Device">
	<g>
		<g>
			<g>
				<path style="fill:#263238;" d="M286.631,283.506h-24.189v-6.771h24.189c1.463,0,2.648,1.186,2.648,2.648v1.474
					C289.279,282.32,288.093,283.506,286.631,283.506z"/>
				<path d="M266.626,283.506h-51.472c-1.361,0-2.465-1.104-2.465-2.465V279.2c0-1.361,1.104-2.465,2.465-2.465h51.472
					c1.361,0,2.465,1.104,2.465,2.465v1.841C269.091,282.402,267.987,283.506,266.626,283.506z"/>
				<path style="opacity:0.5;fill:#FFFFFF;" d="M266.626,283.506h-51.472c-1.361,0-2.465-1.104-2.465-2.465V279.2
					c0-1.361,1.104-2.465,2.465-2.465h51.472c1.361,0,2.465,1.104,2.465,2.465v1.841
					C269.091,282.402,267.987,283.506,266.626,283.506z"/>
				<g>
					<polygon style="fill:#263238;" points="255.316,276.735 268.358,276.735 260.008,245.543 255.316,245.543 					"/>
					<polygon points="266.458,276.735 239.84,276.735 237.19,245.543 258.108,245.543 					"/>
					<polygon style="opacity:0.3;fill:#FFFFFF;" points="266.458,276.735 239.84,276.735 237.19,245.543 258.108,245.543 					"/>
				</g>
			</g>
			<path style="fill:#263238;" d="M333.508,155.886h-12.099l-9.368,107.071h12.1c2.533,0,4.766-2.053,4.988-4.587l8.565-97.897
				C337.915,157.939,336.041,155.886,333.508,155.886z"/>
			<g>
				<path style="fill:#263238;" d="M321.349,262.956H174.871c-2.533,0-4.407-2.053-4.185-4.587l8.565-97.897
					c0.222-2.533,2.455-4.587,4.988-4.587h146.478c2.533,0,4.407,2.053,4.185,4.587l-8.565,97.897
					C326.116,260.903,323.883,262.956,321.349,262.956z"/>
			</g>
			<path style="opacity:0.7;fill:#FFFFFF;" d="M321.349,262.956H174.871c-2.533,0-4.407-2.053-4.185-4.587l8.565-97.897
				c0.222-2.533,2.455-4.587,4.988-4.587h146.478c2.533,0,4.407,2.053,4.185,4.587l-8.565,97.897
				C326.116,260.903,323.883,262.956,321.349,262.956z"/>
			<path style="opacity:0.9;fill:#FAFAFA;" d="M317.44,250.46H180.968c-2.198,0-3.823-1.782-3.631-3.979l7.116-81.341
				c0.192-2.198,2.13-3.979,4.327-3.979h136.472c2.198,0,3.823,1.782,3.631,3.979l-7.116,81.341
				C321.575,248.678,319.637,250.46,317.44,250.46z"/>
			<g>
				<polygon style="fill:#407BFF;" points="281.712,189.882 276.938,189.882 277.774,180.334 282.548,180.334 				"/>
				<polygon style="opacity:0.2;" points="281.712,189.882 276.938,189.882 277.774,180.334 282.548,180.334 				"/>
				<polygon style="fill:#407BFF;" points="291.26,189.882 286.486,189.882 287.739,175.56 292.513,175.56 				"/>
				<polygon style="fill:#407BFF;" points="300.809,189.882 296.034,189.882 297.079,177.947 301.853,177.947 				"/>
				<polygon style="fill:#407BFF;" points="310.357,189.882 305.582,189.882 307.253,170.786 312.027,170.786 				"/>
				<polygon style="opacity:0.4;" points="310.357,189.882 305.582,189.882 307.253,170.786 312.027,170.786 				"/>
				<path style="fill:#407BFF;" d="M315.131,189.001c-14.003,0-28.005,0-42.008,0c0.531-6.072,1.062-12.143,1.594-18.215
					c0.099-1.13-1.665-1.123-1.763,0c-0.557,6.365-1.114,12.731-1.671,19.096c-0.042,0.475,0.438,0.882,0.882,0.882
					c14.322,0,28.644,0,42.966,0C316.265,190.764,316.267,189.001,315.131,189.001z"/>
				<path style="opacity:0.5;fill:#FFFFFF;" d="M315.131,189.001c-14.003,0-28.005,0-42.008,0
					c0.531-6.072,1.062-12.143,1.594-18.215c0.099-1.13-1.665-1.123-1.763,0c-0.557,6.365-1.114,12.731-1.671,19.096
					c-0.042,0.475,0.438,0.882,0.882,0.882c14.322,0,28.644,0,42.966,0C316.265,190.764,316.267,189.001,315.131,189.001z"/>
			</g>
			<g>
				<path style="fill:#407BFF;" d="M202.954,184.714l-3.112,2.861c1.798,1.97,4.413,3.188,7.419,3.188l0.354-4.047
					C205.726,186.717,204.083,185.952,202.954,184.714z"/>
				<path style="opacity:0.5;" d="M202.954,184.714l-3.112,2.861c1.798,1.97,4.413,3.188,7.419,3.188l0.354-4.047
					C205.726,186.717,204.083,185.952,202.954,184.714z"/>
				<path style="fill:#407BFF;" d="M215.053,179.878c-0.33,3.777-3.66,6.839-7.438,6.839l-0.354,4.047
					c6.012,0,11.313-4.874,11.839-10.886H215.053z"/>
				<path style="opacity:0.1;" d="M215.053,179.878c-0.33,3.777-3.66,6.839-7.438,6.839l-0.354,4.047
					c6.012,0,11.313-4.874,11.839-10.886H215.053z"/>
				<path style="fill:#407BFF;" d="M202.954,184.714c-1.129-1.238-1.745-2.947-1.58-4.836h-4.047
					c-0.263,3.006,0.717,5.728,2.515,7.698L202.954,184.714z"/>
				<path style="fill:#407BFF;" d="M208.811,173.038c3.777,0,6.572,3.062,6.241,6.839h4.047c0.526-6.012-3.921-10.886-9.934-10.886
					c-6.012,0-11.312,4.874-11.838,10.886h4.047C201.704,176.1,205.034,173.038,208.811,173.038z"/>
				<g>
					<path style="opacity:0.2;fill:#FFFFFF;" d="M208.811,173.038c3.777,0,6.572,3.062,6.241,6.839h4.047
						c0.526-6.012-3.921-10.886-9.934-10.886c-6.012,0-11.312,4.874-11.838,10.886h4.047
						C201.704,176.1,205.034,173.038,208.811,173.038z"/>
				</g>
				<path style="opacity:0.6;fill:#FFFFFF;" d="M213.472,175.042l3.112-2.861c-1.798-1.97-4.413-3.189-7.419-3.189l-0.354,4.047
					C210.7,173.038,212.343,173.804,213.472,175.042z"/>
			</g>
			<g>
				<path style="fill:#407BFF;" d="M233.275,184.714l-3.112,2.861c1.798,1.97,4.413,3.188,7.419,3.188l0.354-4.047
					C236.047,186.717,234.404,185.952,233.275,184.714z"/>
				<path style="opacity:0.5;" d="M233.275,184.714l-3.112,2.861c1.798,1.97,4.413,3.188,7.419,3.188l0.354-4.047
					C236.047,186.717,234.404,185.952,233.275,184.714z"/>
				<path style="fill:#407BFF;" d="M245.373,179.878c-0.33,3.777-3.66,6.839-7.438,6.839l-0.354,4.047
					c6.012,0,11.313-4.874,11.839-10.886H245.373z"/>
				<path style="opacity:0.1;" d="M245.373,179.878c-0.33,3.777-3.66,6.839-7.438,6.839l-0.354,4.047
					c6.012,0,11.313-4.874,11.839-10.886H245.373z"/>
				<path style="fill:#407BFF;" d="M233.275,184.714c-1.13-1.238-1.745-2.947-1.58-4.836h-4.047
					c-0.263,3.006,0.717,5.728,2.515,7.698L233.275,184.714z"/>
				<path style="fill:#407BFF;" d="M239.132,173.038c3.777,0,6.572,3.062,6.241,6.839h4.047c0.526-6.012-3.921-10.886-9.934-10.886
					c-6.012,0-11.312,4.874-11.838,10.886h4.047C232.025,176.1,235.355,173.038,239.132,173.038z"/>
				<g>
					<path style="opacity:0.2;fill:#FFFFFF;" d="M239.132,173.038c3.777,0,6.572,3.062,6.241,6.839h4.047
						c0.526-6.012-3.921-10.886-9.934-10.886c-6.012,0-11.312,4.874-11.838,10.886h4.047
						C232.025,176.1,235.355,173.038,239.132,173.038z"/>
				</g>
				<path style="opacity:0.6;fill:#FFFFFF;" d="M243.793,175.042l3.112-2.861c-1.798-1.97-4.413-3.189-7.419-3.189l-0.354,4.047
					C241.021,173.038,242.664,173.804,243.793,175.042z"/>
			</g>
			<g>
				<g>
					<g>
						<path style="fill:#407BFF;" d="M278.827,225.3h-5.702l0.499-5.697h5.701L278.827,225.3z M274.474,224.064h3.22l0.282-3.225
							h-3.22L274.474,224.064z"/>
					</g>
					<g>
						<path style="fill:#407BFF;" d="M278.068,233.977h-5.701l0.498-5.697h5.702L278.068,233.977z M273.715,232.741h3.22
							l0.282-3.225h-3.22L273.715,232.741z"/>
					</g>
					<g>
						<path style="fill:#407BFF;" d="M277.309,242.654h-5.702l0.499-5.697h5.702L277.309,242.654z M272.956,241.419h3.22
							l0.282-3.225h-3.22L272.956,241.419z"/>
					</g>
				</g>
				<g>
					<path style="fill:#407BFF;" d="M282.78,223.971c-0.768,0-1.336-0.622-1.269-1.39c0.067-0.768,0.744-1.39,1.512-1.39h19.069
						c0.768,0,1.336,0.622,1.269,1.39c-0.067,0.768-0.744,1.39-1.512,1.39H282.78z"/>
					<path style="opacity:0.7;fill:#FFFFFF;" d="M282.78,223.971c-0.768,0-1.336-0.622-1.269-1.39
						c0.067-0.768,0.744-1.39,1.512-1.39h19.069c0.768,0,1.336,0.622,1.269,1.39c-0.067,0.768-0.744,1.39-1.512,1.39H282.78z"/>
				</g>
				<g>
					<path style="fill:#407BFF;" d="M281.273,241.197c-0.768,0-1.336-0.622-1.269-1.39c0.067-0.768,0.744-1.39,1.512-1.39h15.979
						c0.768,0,1.336,0.622,1.269,1.39c-0.067,0.768-0.744,1.39-1.512,1.39H281.273z"/>
					<path style="opacity:0.4;fill:#FFFFFF;" d="M281.273,241.197c-0.768,0-1.336-0.622-1.269-1.39
						c0.067-0.768,0.744-1.39,1.512-1.39h15.979c0.768,0,1.336,0.622,1.269,1.39c-0.067,0.768-0.744,1.39-1.512,1.39H281.273z"/>
				</g>
				<g>
					<path style="fill:#407BFF;" d="M282.032,232.519c-0.768,0-1.336-0.622-1.269-1.39s0.744-1.39,1.512-1.39h14.743
						c0.768,0,1.336,0.622,1.269,1.39s-0.744,1.39-1.512,1.39H282.032z"/>
					<path style="opacity:0.2;fill:#FFFFFF;" d="M282.032,232.519c-0.768,0-1.336-0.622-1.269-1.39s0.744-1.39,1.512-1.39h14.743
						c0.768,0,1.336,0.622,1.269,1.39s-0.744,1.39-1.512,1.39H282.032z"/>
				</g>
			</g>
			<g>
				<path style="fill:#407BFF;" d="M263.534,233.557c-1.438-1.962-2.875-3.923-4.313-5.885c-0.32-0.436-0.98-0.643-1.4-0.18
					c-1.523,1.678-3.047,3.356-4.57,5.034c-1.198-1.97-2.396-3.94-3.594-5.91c-0.307-0.506-0.974-0.572-1.4-0.18
					c-1.577,1.45-3.121,2.949-4.735,4.358c-0.481-0.263-0.948-0.564-1.418-0.842c-0.869-0.514-1.738-1.028-2.608-1.542
					c-0.437-0.259-0.947-0.076-1.22,0.32c-1.538,2.23-3.077,4.461-4.615,6.692c-1.148-2.23-2.296-4.461-3.445-6.692
					c-0.226-0.439-0.814-0.538-1.22-0.32c-0.734,0.395-1.468,0.79-2.202,1.185c-0.449,0.242-1.961,0.997-2.387,1.331
					c-0.345-0.315-1.656-0.99-1.916-1.145c-0.769-0.457-1.539-0.914-2.308-1.372c-0.989-0.587-1.887,0.953-0.9,1.54
					c1.28,0.76,3.561,2.868,5.067,2.865c1.367-0.003,3.305-1.448,4.742-2.378c1.229,2.388,2.458,4.775,3.687,7.163
					c0.328,0.637,1.184,0.516,1.54,0c1.662-2.41,3.325-4.82,4.987-7.23c1.294,0.765,2.588,1.53,3.881,2.295
					c0.352,0.208,0.789,0.129,1.081-0.139c1.474-1.356,2.949-2.711,4.423-4.067c1.216,2,2.432,4,3.648,6
					c0.286,0.47,1.006,0.615,1.4,0.18c1.547-1.704,3.094-3.408,4.641-5.112c1.205,1.644,2.41,3.288,3.615,4.932
					C262.666,235.372,264.214,234.484,263.534,233.557z"/>
				<g>
					<path style="fill:#407BFF;" d="M262.086,240.872c-14.161,0-28.323,0-42.484,0c0.537-6.14,1.074-12.281,1.612-18.421
						c0.1-1.143-1.684-1.136-1.783,0c-0.563,6.438-1.126,12.875-1.69,19.313c-0.042,0.481,0.442,0.891,0.891,0.891
						c14.485,0,28.969,0,43.454,0C263.233,242.654,263.235,240.872,262.086,240.872z"/>
					<path style="opacity:0.5;fill:#FFFFFF;" d="M262.086,240.872c-14.161,0-28.323,0-42.484,0
						c0.537-6.14,1.074-12.281,1.612-18.421c0.1-1.143-1.684-1.136-1.783,0c-0.563,6.438-1.126,12.875-1.69,19.313
						c-0.042,0.481,0.442,0.891,0.891,0.891c14.485,0,28.969,0,43.454,0C263.233,242.654,263.235,240.872,262.086,240.872z"/>
				</g>
			</g>
		</g>
		<g>
			<g>
				<polygon style="fill:#407BFF;" points="308.347,214.69 232.521,214.69 234.213,195.344 310.04,195.344 				"/>
				<polygon style="opacity:0.9;fill:#FFFFFF;" points="308.347,214.69 232.521,214.69 234.213,195.344 310.04,195.344 				"/>
				<path style="fill:#263238;" d="M309.693,216.164h-78.776l1.951-22.294h78.776L309.693,216.164z M234.124,213.215h72.878
					l1.435-16.397h-72.878L234.124,213.215z"/>
			</g>
			<g>
				<path style="fill:#407BFF;" d="M249.645,207.612l-0.134,1.533h-6.393l0.722-8.257h6.24l-0.134,1.534h-4.341l-0.157,1.793h3.833
					l-0.13,1.486h-3.833l-0.167,1.911H249.645z"/>
				<path style="fill:#407BFF;" d="M256.152,209.145l-1.743-2.866l-2.209,2.866h-2.194l3.422-4.199l-2.547-4.057h2.17l1.665,2.678
					l2.098-2.678h2.064l-3.227,3.987l2.705,4.27H256.152z"/>
				<path style="fill:#407BFF;" d="M261.314,202.445h-2.642l0.136-1.557h7.195l-0.136,1.557h-2.642l-0.586,6.7h-1.911
					L261.314,202.445z"/>
				<path style="fill:#407BFF;" d="M271.568,209.145l-1.391-2.3h-0.095h-1.663l-0.201,2.3h-1.911l0.722-8.257h3.574
					c0.731,0,1.356,0.123,1.873,0.366c0.517,0.244,0.902,0.59,1.154,1.039c0.252,0.448,0.351,0.979,0.297,1.592
					c-0.054,0.613-0.247,1.142-0.581,1.586c-0.334,0.444-0.782,0.784-1.346,1.02l1.62,2.654H271.568z M271.638,202.817
					c-0.277-0.248-0.703-0.372-1.277-0.372h-1.557l-0.252,2.879h1.557c0.574,0,1.021-0.126,1.342-0.378
					c0.321-0.251,0.501-0.605,0.541-1.061C272.033,203.421,271.915,203.065,271.638,202.817z"/>
				<path style="fill:#407BFF;" d="M280.568,207.376h-3.833l-0.886,1.769h-1.958l4.402-8.257h1.887l2.969,8.257h-2.005
					L280.568,207.376z M280.094,205.925l-1.033-3.161l-1.586,3.161H280.094z"/>
				<path style="fill:#407BFF;" d="M285.598,208.738c-0.648-0.366-1.138-0.872-1.471-1.521c-0.333-0.649-0.463-1.382-0.392-2.2
					c0.072-0.818,0.331-1.551,0.777-2.2c0.446-0.648,1.025-1.156,1.737-1.521c0.712-0.366,1.493-0.548,2.342-0.548
					c0.716,0,1.352,0.126,1.907,0.377c0.556,0.252,1.01,0.613,1.362,1.086l-1.326,1.132c-0.502-0.644-1.166-0.967-1.991-0.967
					c-0.511,0-0.977,0.111-1.398,0.336c-0.42,0.224-0.761,0.537-1.02,0.938c-0.259,0.401-0.411,0.857-0.456,1.368
					c-0.045,0.512,0.027,0.967,0.216,1.369c0.189,0.4,0.475,0.713,0.856,0.938c0.382,0.224,0.828,0.336,1.339,0.336
					c0.826,0,1.546-0.326,2.161-0.979l1.128,1.132c-0.435,0.48-0.955,0.846-1.558,1.097c-0.604,0.252-1.264,0.377-1.979,0.377
					C286.99,209.286,286.246,209.104,285.598,208.738z"/>
				<path style="fill:#407BFF;" d="M294.753,202.445h-2.642l0.136-1.557h7.195l-0.136,1.557h-2.642l-0.586,6.7h-1.911
					L294.753,202.445z"/>
			</g>
		</g>
	</g>
</g>
<g id="Desk">
	<g>
		<g>
			<rect x="156.76" y="290.327" style="fill:#407BFF;" width="205.633" height="114.973"/>
		</g>
		<g>
			
				<rect x="141.579" y="290.327" transform="matrix(-1 -1.224647e-16 1.224647e-16 -1 302.3352 695.6269)" style="fill:#407BFF;" width="19.178" height="114.973"/>
			
				<rect x="141.579" y="290.327" transform="matrix(-1 -1.224647e-16 1.224647e-16 -1 302.3352 695.6269)" style="opacity:0.3;fill:#FFFFFF;" width="19.178" height="114.973"/>
		</g>
		<g>
			<rect x="137.553" y="290.327" style="fill:#407BFF;" width="210.562" height="10.175"/>
			<rect x="137.553" y="290.327" style="opacity:0.6;fill:#FFFFFF;" width="210.562" height="10.175"/>
		</g>
		<g>
			<rect x="133.528" y="290.327" style="fill:#407BFF;" width="8.05" height="114.973"/>
			<rect x="133.528" y="290.327" style="opacity:0.5;fill:#FFFFFF;" width="8.05" height="114.973"/>
		</g>
		<g>
			
				<rect x="353.73" y="290.327" transform="matrix(-1 -1.224647e-16 1.224647e-16 -1 726.637 695.6269)" style="fill:#407BFF;" width="19.178" height="114.973"/>
			
				<rect x="353.73" y="290.327" transform="matrix(-1 -1.224647e-16 1.224647e-16 -1 726.637 695.6269)" style="opacity:0.3;fill:#FFFFFF;" width="19.178" height="114.973"/>
		</g>
		<g>
			
				<rect x="360.344" y="283.697" transform="matrix(-1 -1.224647e-16 1.224647e-16 -1 738.0831 576.2197)" style="fill:#407BFF;" width="17.395" height="8.825"/>
			
				<rect x="360.344" y="283.697" transform="matrix(-1 -1.224647e-16 1.224647e-16 -1 738.0831 576.2197)" style="opacity:0.3;fill:#FFFFFF;" width="17.395" height="8.825"/>
		</g>
		<g>
			<rect x="253.319" y="305.991" style="fill:#407BFF;" width="86.871" height="99.309"/>
			<rect x="253.319" y="305.991" style="opacity:0.5;fill:#FFFFFF;" width="86.871" height="99.309"/>
		</g>
		<g>
			<rect x="340.19" y="305.991" style="fill:#407BFF;" width="5.489" height="99.309"/>
			<rect x="340.19" y="305.991" style="opacity:0.2;fill:#FFFFFF;" width="5.489" height="99.309"/>
		</g>
		<g>
			<g>
				<rect x="258.808" y="338.613" style="fill:#407BFF;" width="75.894" height="22.973"/>
				<g>
					<rect x="258.808" y="311.402" style="fill:#407BFF;" width="75.894" height="22.973"/>
					<rect x="258.808" y="365.823" style="fill:#407BFF;" width="75.894" height="22.973"/>
				</g>
			</g>
			<g style="opacity:0.7;">
				<rect x="258.808" y="338.613" style="fill:#FFFFFF;" width="75.894" height="22.973"/>
				<g>
					<rect x="258.808" y="311.402" style="fill:#FFFFFF;" width="75.894" height="22.973"/>
					<rect x="258.808" y="365.823" style="fill:#FFFFFF;" width="75.894" height="22.973"/>
				</g>
			</g>
		</g>
		<g>
			<rect x="345.679" y="290.327" style="fill:#407BFF;" width="8.05" height="114.973"/>
			<rect x="156.76" y="290.327" style="opacity:0.1;fill:#FFFFFF;" width="205.633" height="114.973"/>
			<rect x="345.679" y="290.327" style="opacity:0.5;fill:#FFFFFF;" width="8.05" height="114.973"/>
		</g>
		<rect x="126.913" y="283.697" style="fill:#407BFF;" width="233.431" height="8.825"/>
		<rect x="126.913" y="283.697" style="opacity:0.6;fill:#FFFFFF;" width="233.431" height="8.825"/>
		<g>
			<path style="fill:#407BFF;" d="M296.974,320.392c-0.485,0-2.149,0-2.635,0c-1.379,0-2.497,1.118-2.497,2.497
				c0,1.379,1.118,2.497,2.497,2.497c0.485,0,2.15,0,2.635,0c1.379,0,2.497-1.118,2.497-2.497
				C299.471,321.51,298.353,320.392,296.974,320.392z"/>
			<path style="fill:#407BFF;" d="M296.974,347.602c-0.485,0-2.149,0-2.635,0c-1.379,0-2.497,1.118-2.497,2.497
				c0,1.379,1.118,2.497,2.497,2.497c0.485,0,2.15,0,2.635,0c1.379,0,2.497-1.118,2.497-2.497
				C299.471,348.72,298.353,347.602,296.974,347.602z"/>
			<path style="fill:#407BFF;" d="M296.974,374.813c-0.485,0-2.149,0-2.635,0c-1.379,0-2.497,1.118-2.497,2.497
				c0,1.379,1.118,2.497,2.497,2.497c0.485,0,2.15,0,2.635,0c1.379,0,2.497-1.118,2.497-2.497
				C299.471,375.931,298.353,374.813,296.974,374.813z"/>
			<path style="opacity:0.3;fill:#FAFAFA;" d="M296.837,322.889c0,1.379-1.118,2.497-2.497,2.497c-1.379,0-2.497-1.118-2.497-2.497
				c0-1.379,1.118-2.497,2.497-2.497C295.719,320.392,296.837,321.51,296.837,322.889z"/>
			<path style="opacity:0.3;fill:#FAFAFA;" d="M296.837,350.099c0,1.379-1.118,2.497-2.497,2.497c-1.379,0-2.497-1.118-2.497-2.497
				c0-1.379,1.118-2.497,2.497-2.497C295.719,347.602,296.837,348.72,296.837,350.099z"/>
			<path style="opacity:0.3;fill:#FAFAFA;" d="M296.837,377.31c0,1.379-1.118,2.497-2.497,2.497c-1.379,0-2.497-1.118-2.497-2.497
				c0-1.379,1.118-2.497,2.497-2.497C295.719,374.813,296.837,375.931,296.837,377.31z"/>
		</g>
	</g>
</g>
<g id="Character">
	<g>
		<path style="fill:#CE7A63;" d="M209.341,183.113c-1.428,2.019,1.722,8.443,1.722,8.443l-14.191,1.718l2.777-15.47
			C199.648,177.804,211.026,180.73,209.341,183.113z"/>
		<path style="opacity:0.2;" d="M209.116,186.007c-0.219-1.177-0.227-2.256,0.225-2.894c1.048-1.481-2.951-3.172-6.128-4.24
			C203.963,180.377,206.086,184.182,209.116,186.007z"/>
		<g>
			<polygon style="fill:#CE7A63;" points="243.531,394.485 245.043,408.924 238.383,410.174 234.38,396.237 			"/>
			<path style="fill:#263238;" d="M244.896,406.455l-7.829,1.569c-0.295,0.059-0.51,0.315-0.517,0.616l-0.139,6.653
				c-0.017,0.59,0.448,1.082,1.038,1.099c0.076,0.002,0.152-0.004,0.226-0.018c2.812-0.614,5.291-1.272,8.806-1.971
				c4.147-0.829,3.194-0.123,8.083-1.03c2.945-0.55,2.814-3.996,1.535-3.911c-5.844,0.425-6.781-1.178-9.388-2.778
				C246.154,406.387,245.508,406.306,244.896,406.455z"/>
			<polygon style="opacity:0.2;" points="237.024,405.444 244.574,404.448 243.531,394.485 234.38,396.237 			"/>
		</g>
		<g>
			<polygon style="fill:#CE7A63;" points="185.925,391.559 181.391,409.459 174.997,408.559 176.696,391.046 			"/>
			<path style="fill:#263238;" d="M182.237,407.21l-7.965-0.561c-0.3-0.021-0.575,0.168-0.661,0.457l-1.896,6.379
				c-0.172,0.565,0.146,1.162,0.71,1.334c0.073,0.022,0.147,0.036,0.223,0.043c2.875,0.152,5.439,0.175,9.014,0.431
				c4.219,0.298,3.113,0.728,8.067,1.148c2.986,0.25,3.772-3.108,2.516-3.365c-5.748-1.138-6.227-2.932-8.318-5.165
				C183.468,407.478,182.867,407.228,182.237,407.21z"/>
			<path style="opacity:0.2;" d="M175.392,404.491l6.987,1.071l3.341-13.193c-3.064-0.326-8.08-0.829-9.062-0.927L175.392,404.491z"
				/>
		</g>
		<path style="fill:#263238;" d="M192.84,254.533c0,0-2.205,6.398-2.525,21.974c-0.191,9.307-1.101,24.042-1.802,34.394
			c-0.205,3.028-0.392,5.682-0.539,7.714c-0.186,2.584-0.801,5.111-1.781,7.497c-0.682,1.66-1.537,3.934-2.418,6.771
			c-1.402,4.513-2.874,10.452-3.83,17.613c-2.33,17.449-5.008,51.249-5.008,51.249l8.635,1.12l21.255-78.771l22.652-69.621
			L192.84,254.533z"/>
		<path style="opacity:0.2;" d="M215.392,292.091l-0.916-6.857l-7.412-6.265l-2.492-1.228c0,0,5.772,14.57,4.325,33.642
			L215.392,292.091z"/>
		<path style="fill:#263238;" d="M234.266,254.848l10.392,146.304l-8.796,1.496c0,0-11.766-40.486-13.755-62.868
			c-0.238-2.673-0.336-5.088-0.258-7.145c0.116-3.049-0.332-6.09-1.193-9.002l-1.235-4.178l-6.933-23.461
			c-1.455-4.925-3.715-9.577-6.863-13.547c-3.605-4.548-8.065-13.362-6.214-28.024l32.552-2.254L234.266,254.848z"/>
		<g>
			<g>
				<path style="fill:#CE7A63;" d="M201.73,245.611c0,0,5.054-1.036,6.748-0.876c1.417,0.134,5.411,1.776,5.411,1.776
					c1.688,0.554,2.159,2.717,0.855,3.923c0,0-2.777,3.558-4.164,3.852c-2.768,0.586-10.71-3.663-10.71-3.663L201.73,245.611z"/>
				<polygon style="fill:#263238;" points="201.482,243.191 198.675,252.243 201.368,252.467 203.838,244.558 				"/>
				<polygon style="opacity:0.2;fill:#FFFFFF;" points="201.482,243.191 198.675,252.243 201.368,252.467 203.838,244.558 				"/>
			</g>
			<path style="fill:#407BFF;" d="M184.863,200.072c-1.288-1.765-4.044-1.398-4.97,0.581c-3.15,6.739-11.103,24.609-11.134,33.283
				c-0.039,10.817,31.751,17.218,31.751,17.218l1.921-6.216L180.557,231.5l6.292-14.825
				C186.849,216.674,188.414,204.937,184.863,200.072z"/>
			<path style="opacity:0.1;" d="M184.863,200.072c-1.288-1.765-4.044-1.398-4.97,0.581c-3.15,6.739-11.103,24.609-11.134,33.283
				c-0.039,10.817,31.751,17.218,31.751,17.218l1.921-6.216L180.557,231.5l6.292-14.825
				C186.849,216.674,188.414,204.937,184.863,200.072z"/>
			<g style="opacity:0.4;">
				<path d="M185.512,201.145l-3.428,0.471l-1.971,1.413l2.35,23.979l4.386-10.333C186.849,216.674,188.209,206.468,185.512,201.145
					z"/>
				<path d="M192.135,238.612l-9.081-5.579l1.32,13.473c1.897,0.712,3.795,1.346,5.594,1.901L192.135,238.612z"/>
			</g>
		</g>
		<path style="fill:#407BFF;" d="M233.785,254.771c0,0-15.651,5.121-41.287,0.975c0,0,0,0-12.286-51.792
			c-0.919-3.872,1.029-7.906,4.514-9.829c5.276-2.913,15.712-5.659,36.302-4.521c5.078,0.28,9.373,3.88,10.538,8.831
			L233.785,254.771z"/>
		<g>
			<path style="fill:#263238;" d="M192.677,191.79l1.565-3.673c0,0,6.163-3.113,16.632-1.647l2.486,2.878
				C213.361,189.348,201.646,189.633,192.677,191.79z"/>
		</g>
		<path style="fill:#263238;" d="M216.755,164.897c0.141,0.584-0.053,1.129-0.444,1.217c-0.391,0.088-0.855-0.332-0.976-0.903
			c-0.122-0.571,0.053-1.129,0.446-1.211C216.175,163.917,216.608,164.316,216.755,164.897z"/>
		<path style="fill:#BA4D3C;" d="M216.227,166.662l3.998,3.908c0,0-1.283,1.438-3.611,1.141L216.227,166.662z"/>
		<path style="fill:#CE7A63;" d="M193.426,167.506c1.53,7.837,2.006,11.192,6.617,14.764c6.778,3.391,16.466,1.896,17.36-6.219
			c0.808-7.302-1.824-18.864-10.16-21.118c-5.942-1.604-12.057,1.789-13.657,7.579C193.137,164.139,193.082,165.849,193.426,167.506
			z"/>
		<path style="fill:#263238;" d="M213.81,163.057c0.108,0.001,0.208-0.05,0.268-0.137c0.421-0.672,1.149-1.095,1.955-1.138
			c0.175,0.004,0.317-0.132,0.32-0.304c-0.003-0.174-0.145-0.317-0.321-0.324c-1.023,0.032-1.953,0.557-2.49,1.406
			c-0.097,0.144-0.057,0.341,0.091,0.44l0.001,0.001C213.687,163.036,213.748,163.055,213.81,163.057z"/>
		<path style="opacity:0.4;" d="M233.266,229.254l-1.047-18.97l-6.781-8.975l-3.712-3.437l-2.86,2.003
			C218.867,199.875,219.264,210.33,233.266,229.254z"/>
		<path style="fill:#407BFF;" d="M235.472,202.292c3.755,6.9,5.211,10.979,6.498,12.692c0.171,0.228,0.452,0.342,0.734,0.301
			l21.95-3.188c0.376-0.055,0.736,0.17,0.854,0.531l1.768,5.436c0.132,0.406-0.087,0.843-0.491,0.98l-20.58,6.975
			c-3.726,1.448-7.957,0.72-10.957-1.922c-5.669-4.991-10.023-10.537-13.989-18.374c-1.581-3.123-5.249-8.898,0.776-13.979
			C227.034,187.529,232.98,197.713,235.472,202.292z"/>
		<path style="opacity:0.1;fill:#FFFFFF;" d="M235.472,202.292c3.755,6.9,5.211,10.979,6.498,12.692
			c0.171,0.228,0.452,0.342,0.734,0.301l21.95-3.188c0.376-0.055,0.736,0.17,0.854,0.531l1.768,5.436
			c0.132,0.406-0.087,0.843-0.491,0.98l-20.58,6.975c-3.726,1.448-7.957,0.72-10.957-1.922
			c-5.669-4.991-10.023-10.537-13.989-18.374c-1.581-3.123-5.249-8.898,0.776-13.979
			C227.034,187.529,232.98,197.713,235.472,202.292z"/>
		<path style="fill:#CE7A63;" d="M265.287,212.617l4.526-5.316c0.492-0.578,1.142-0.999,1.871-1.21l10.646-3.096
			c0.36-0.105,0.744,0.062,0.913,0.396l0,0c0.206,0.406,0.021,0.902-0.4,1.075l-4.4,1.801c-0.315,0.129-0.51,0.447-0.482,0.785
			l0.218,2.661c0.133,1.631-0.771,3.171-2.26,3.849l-3.201,1.457c-0.124,0.049-0.247,0.097-0.371,0.146l-5.492,1.846
			c-0.437,0.147-0.905-0.115-1.008-0.564l-0.725-3.15C265.065,213.057,265.127,212.804,265.287,212.617z"/>
		<g>
			<path style="fill:#263238;" d="M263.97,212.067l2.712,6.845c0.167,0.422,0.659,0.613,1.067,0.414l0.9-0.439
				c0.366-0.178,0.533-0.608,0.384-0.987l-2.586-6.563c-0.133-0.339-0.484-0.54-0.844-0.485l-1.026,0.157
				C264.082,211.085,263.786,211.601,263.97,212.067z"/>
		</g>
		<g>
			<polygon style="fill:#407BFF;" points="234.14,400.566 235.505,404.181 245.872,402.579 245.584,398.736 			"/>
			<polygon style="opacity:0.2;" points="234.14,400.566 235.505,404.181 245.872,402.579 245.584,398.736 			"/>
		</g>
		<g>
			<polygon style="fill:#407BFF;" points="174.014,399.11 173.851,402.906 184.249,404.296 185.058,400.528 			"/>
			<polygon style="opacity:0.2;" points="174.014,399.11 173.851,402.906 184.249,404.296 185.058,400.528 			"/>
		</g>
		<path style="fill:#263238;" d="M198.789,182.506c0,0,1.163-1.65,4.664,0.259c0,0,4.968-5.562,5.122-10.771
			c0,0,3.67-0.679,3.363-3.051c-0.308-2.372-2.055-5.473-1.685-7.623c0.37-2.149,3.938-7.794,0.906-10.299
			c-3.032-2.505-3.39,0.48-5.106,0.801c-1.717,0.322-12.086,0.692-13.412,8.033c0,0-5.227,5.455-0.692,12.467
			C196.482,179.335,198.789,182.506,198.789,182.506z"/>
		<path style="fill:#407BFF;" d="M208.734,167.101l9.073-5.041c0,0,2.282,5.937,1.188,6.236c-1.094,0.299-2.532-4.362-2.532-4.362
			l-6.46,3.081L208.734,167.101z"/>
		<path style="opacity:0.7;fill:#FFFFFF;" d="M216.69,164.091l0.688-0.408c0,0,1.874,4.196,1.359,4.566
			C218.222,168.618,216.69,164.091,216.69,164.091z"/>
		<path style="fill:#CE7A63;" d="M209.969,167.283c1.381,0.922,2.333,2.341,2.644,3.942c0.398,2.127-1.604,2.996-3.552,2.243
			c-1.766-0.681-4.079-2.609-3.591-4.672C205.957,166.734,208.267,166.174,209.969,167.283z"/>
	</g>
</g>
</svg>
